<svg width="20" height="27" viewBox="0 0 20 27" fill="none" xmlns="http://www.w3.org/2000/svg">
<path fill-rule="evenodd" clip-rule="evenodd" d="M19.1072 2.78087C18.6145 1.24614 16.9701 0.400605 15.4374 0.89403L2.77701 4.96977C1.24429 5.4632 0.400068 7.10988 0.892799 8.64461C1.38553 10.1793 3.02989 11.0249 4.56261 10.5314L17.223 6.4557C18.7557 5.96228 19.5999 4.3156 19.1072 2.78087Z" fill="#A73D82"/>
<path fill-rule="evenodd" clip-rule="evenodd" d="M19.1072 10.4274C18.6145 8.89262 16.9701 8.04709 15.4374 8.54051L2.77701 12.6163C1.24429 13.1097 0.400068 14.7564 0.892799 16.2911C1.38553 17.8258 3.02989 18.6714 4.56261 18.1779L17.223 14.1022C18.7557 13.6088 19.5999 11.9621 19.1072 10.4274Z" fill="#A73D82"/>
<path fill-rule="evenodd" clip-rule="evenodd" d="M19.1072 18.0729C18.6145 16.5381 16.9701 15.6926 15.4374 16.186L2.77701 20.2618C1.24429 20.7552 0.400068 22.4019 0.892799 23.9366C1.38553 25.4713 3.02989 26.3169 4.56261 25.8234L17.223 21.7477C18.7557 21.2543 19.5999 19.6076 19.1072 18.0729Z" fill="#A73D82"/>
</svg>
